<svg xmlns="http://www.w3.org/2000/svg" version="1.1" xmlns:xlink="http://www.w3.org/1999/xlink" xmlns:svgjs="http://svgjs.dev/svgjs" width="2000" height="1500" viewBox="0 0 2000 1500"><rect width="2000" height="1500" fill="#50a060"></rect><g transform="matrix(0.75,0,0,0.75,249.090909090909,282.7536437246963)"><svg viewBox="0 0 396 247" data-background-color="#50a060" preserveAspectRatio="xMidYMid meet" height="1247" width="2000" xmlns="http://www.w3.org/2000/svg" xmlns:xlink="http://www.w3.org/1999/xlink"><g id="tight-bounds" transform="matrix(1,0,0,1,0.2400000000000091,-0.09999999999999432)"><svg viewBox="0 0 395.52 247.2" height="247.2" width="395.52"><g><svg></svg></g><g><svg viewBox="0 0 395.52 247.2" height="247.2" width="395.52"><g transform="matrix(1,0,0,1,140.981387537092,47.215199999999996)"><svg viewBox="0 0 113.55722492581602 152.7696" height="152.7696" width="113.55722492581602"><g><svg viewBox="0 0 113.55722492581602 152.7696" height="152.7696" width="113.55722492581602"><g><svg viewBox="0 0 113.55722492581602 152.7696" height="152.7696" width="113.55722492581602"><g><svg viewBox="0 0 113.55722492581602 152.7696" height="152.7696" width="113.55722492581602"><g id="textblocktransform"><svg viewBox="0 0 113.55722492581602 152.7696" height="152.7696" width="113.55722492581602" id="textblock"><g><svg viewBox="0 0 113.55722492581602 152.7696" height="152.7696" width="113.55722492581602"><g transform="matrix(1,0,0,1,0,0)"><svg width="113.55722492581602" viewBox="3 -33.70000076293945 25.049999237060547 33.70000076293945" height="152.7696" data-palette-color="#454545"><path d="M28.05-6.2L28.05 0 3 0 3-5.65 18.1-27.5 3.3-27.5 3.3-33.7 27.45-33.7 27.45-28.25 12.25-6.2 28.05-6.2Z" opacity="1" transform="matrix(1,0,0,1,0,0)" fill="#454545" class="wordmark-text-0" data-fill-palette-color="primary" id="text-0"></path></svg></g></svg></g></svg></g></svg></g></svg></g></svg></g></svg></g><path d="M323.283 41.215L323.283 0 76.083 0 76.083 247.2 323.283 247.2 323.283 205.985 309.506 205.985 309.506 233.423 89.86 233.423 89.86 13.777 309.506 13.777 309.506 41.215Z" fill="#454545" stroke="transparent" data-fill-palette-color="primary"></path></svg></g><defs></defs></svg><rect width="395.52" height="247.2" fill="none" stroke="none" visibility="hidden"></rect></g></svg></g></svg>